<?xml version="1.0" standalone="no"?>
<!DOCTYPE svg PUBLIC "-//W3C//DTD SVG 20010904//EN"
 "http://www.w3.org/TR/2001/REC-SVG-20010904/DTD/svg10.dtd">
<svg version="1.0" xmlns="http://www.w3.org/2000/svg"
 width="433.000000pt" height="433.000000pt" viewBox="0 0 433.000000 433.000000"
 preserveAspectRatio="xMidYMid meet">
<metadata>
Created by potrace 1.14, written by Peter Selinger 2001-2017
</metadata>
<g transform="translate(0.000000,433.000000) scale(0.100000,-0.100000)"
fill="#000000" stroke="none">
<path d="M2127 3965 c-27 -64 -39 -76 -82 -82 -36 -4 -76 -10 -82 -12 -2 -1
18 -20 43 -43 44 -41 46 -44 40 -88 -3 -25 -7 -55 -10 -68 -3 -13 -2 -22 2
-20 4 2 31 16 60 31 l52 27 57 -29 c31 -17 58 -29 59 -28 1 1 -3 31 -9 66
l-11 63 46 44 c26 24 46 45 45 45 -1 1 -11 3 -22 4 -103 13 -110 17 -139 83
-11 24 -22 45 -25 47 -4 2 -14 -16 -24 -40z"/>
<path d="M1715 3830 c-10 -22 -18 -40 -19 -40 -1 -1 -19 -3 -41 -6 -22 -4 -42
-8 -44 -10 -3 -2 10 -18 27 -35 36 -35 35 -31 23 -81 -5 -21 -8 -38 -7 -38 1
0 21 9 45 21 l42 20 35 -20 c19 -12 37 -21 40 -21 5 0 -6 73 -12 79 -2 3 12
22 33 43 l37 38 -27 1 c-15 1 -31 3 -37 4 -5 1 -14 3 -20 4 -5 0 -19 19 -30
41 -11 22 -22 40 -24 40 -1 0 -11 -18 -21 -40z"/>
<path d="M2546 3837 c-17 -39 -46 -57 -94 -57 l-26 0 37 -38 c21 -21 35 -40
33 -43 -7 -7 -16 -79 -10 -79 4 0 22 10 41 21 l35 22 40 -23 c21 -12 41 -20
43 -18 3 2 0 21 -6 42 -11 39 -4 56 34 84 24 18 21 32 -5 32 -46 0 -65 12 -85
53 l-21 42 -16 -38z"/>
<path d="M1385 3735 c-11 -15 -30 -27 -42 -28 -28 -2 -29 -8 -3 -30 15 -13 18
-24 13 -49 l-6 -33 25 17 c22 14 29 15 52 3 28 -15 29 -13 26 23 -1 13 9 35
22 49 12 13 19 24 13 23 -31 -7 -56 3 -68 25 l-13 25 -19 -25z"/>
<path d="M2882 3736 c-6 -15 -22 -26 -43 -30 l-33 -6 23 -16 c19 -13 22 -23
18 -49 -5 -29 -3 -32 14 -28 11 3 22 9 25 14 3 5 19 2 36 -7 l31 -16 -6 30
c-4 21 -1 35 13 50 21 23 17 32 -16 32 -17 0 -25 7 -30 25 -8 31 -18 32 -32 1z"/>
<path d="M1947 3524 c-1 -1 -60 -5 -132 -8 -71 -3 -141 -8 -155 -10 -14 -3
-54 -7 -90 -11 -120 -12 -236 -30 -395 -60 -36 -7 -154 -38 -247 -66 -58 -17
-67 -23 -72 -47 -6 -30 -18 -133 -20 -171 -1 -22 -9 -26 -81 -43 -44 -10 -126
-30 -181 -45 l-101 -27 28 -85 c16 -46 29 -88 29 -91 0 -4 -60 -22 -132 -40
-139 -34 -245 -66 -313 -95 l-40 -18 30 -12 c39 -17 367 -115 383 -115 6 0 12
-2 12 -5 0 -16 -93 -175 -171 -292 -27 -40 -47 -73 -45 -73 1 0 29 9 62 21
157 55 357 107 464 121 24 3 25 1 26 -52 2 -69 14 -255 19 -281 2 -11 6 -45 9
-77 3 -31 10 -82 17 -112 6 -30 13 -68 16 -85 13 -75 58 -209 100 -294 49
-103 115 -177 278 -316 44 -37 91 -77 105 -89 14 -12 106 -87 205 -166 99 -80
187 -150 195 -157 36 -29 309 -241 342 -265 20 -15 43 -34 50 -42 13 -12 39 5
194 126 599 468 884 708 953 803 35 47 71 115 105 195 15 37 62 205 70 255 3
17 9 57 15 90 20 119 29 211 36 355 3 57 7 105 9 107 2 3 55 -7 116 -21 14 -4
39 -8 55 -11 54 -9 158 -38 270 -76 61 -20 111 -36 112 -35 1 1 -22 39 -52 85
-30 45 -55 84 -55 85 0 2 -22 40 -50 86 -28 46 -50 88 -50 94 0 6 89 38 198
70 108 33 203 62 210 66 29 14 -213 95 -408 135 -47 10 -86 19 -88 21 -2 1 10
46 26 101 17 54 31 104 33 112 3 10 -8 17 -31 22 -29 6 -245 46 -287 53 -7 1
-15 5 -19 8 -8 8 -18 86 -23 181 -1 22 -43 40 -154 68 -106 26 -116 28 -152
35 -16 3 -61 11 -100 19 -91 19 -112 22 -181 30 -33 4 -67 9 -76 11 -9 1 -45
5 -80 9 -35 3 -81 8 -103 10 -133 14 -677 29 -688 19z"/>
</g>
</svg>
